<svg xmlns="http://www.w3.org/2000/svg" width="83.892" height="24.611" viewBox="0 0 83.892 24.611"><g transform="translate(17.181 0)"><path d="M489.483,267.194v-4.968h-3.871V258.1l4.129-.194.71-4.839h4.581V257.9h6.387v4.323h-6.387V267.1c0,2.291,1.064,3,3.129,3a9.162,9.162,0,0,0,2.936-.516l.968,4a19.415,19.415,0,0,1-5.356.839C491.419,274.42,489.483,271.517,489.483,267.194Z" transform="translate(-485.612 -251.58)" fill="#0f4798"/><path d="M549.114,280.839V270.9h5.549v9.227c0,1.807.387,2.581,1.839,2.581a2.655,2.655,0,0,0,2.42-1.42V270.9h5.549v16.13h-4.517l-.387-2.129h-.129a6.608,6.608,0,0,1-5.226,2.516C550.6,287.42,549.114,284.84,549.114,280.839Z" transform="translate(-531.888 -264.58)" fill="#0f4798"/><path d="M616.807,268.3h-.129l-.452,1.742H611.9V247.593h5.549v5.226l-.193,2.323h.129a5.971,5.971,0,0,1,4.032-1.613c3.9,0,6.42,3.226,6.42,8.162,0,5.581-3.355,8.743-6.872,8.743A5.613,5.613,0,0,1,616.807,268.3Zm5.355-6.517c0-2.645-.806-3.742-2.387-3.742a2.965,2.965,0,0,0-2.323,1.161v5.936a3.272,3.272,0,0,0,2.194.774C621,265.917,622.162,264.885,622.162,261.788Z" transform="translate(-577.645 -247.593)" fill="#0f4798"/><path d="M672.076,277.928a8.272,8.272,0,0,1,8.452-8.452c5.1,0,7.678,3.484,7.678,7.807a14.593,14.593,0,0,1-.226,2.323H676.27v-3.613h7.872l-.774.968c0-2.129-.839-3.29-2.646-3.29-2.129,0-3.29,1.355-3.29,4.258,0,3.032,1.484,4.258,4.452,4.258a9.01,9.01,0,0,0,3.871-.968l1.807,3.291a12.8,12.8,0,0,1-6.452,1.871C676.012,286.38,672.076,283.283,672.076,277.928Z" transform="translate(-621.495 -263.54)" fill="#0f4798"/></g><g transform="translate(0 1.449)"><path d="M427.708,257.786l2.075,6.957c.479,1.6.861,3.255,1.309,4.979h.127c.446-1.724.83-3.382,1.309-4.979l2.058-6.9-6.613-4.4c-2.338-1.554-5.718.682-5.7,3.768l0,.577Z" transform="translate(-422.277 -252.934)" fill="#0f4798"/><path d="M476.333,283.946l-3.487-2.318-4.064,11.68,6.268-2.579C477.934,289.542,478.7,285.517,476.333,283.946Z" transform="translate(-456.167 -273.844)" fill="#0f4798"/><path d="M428.02,287.961l-5.743-15.953.1,14.766a3.241,3.241,0,0,0,4.474,2.975l4.344-1.788Z" transform="translate(-422.277 -266.834)" fill="#0f4798"/></g></svg>