<svg xmlns="http://www.w3.org/2000/svg" width="382" height="438.898" viewBox="0 0 382 438.898"><g transform="translate(-24.346 -27.971)"><path d="M668.056,235.914,924.808,392.647c40,24.413,40,82.49,0,106.9L668.056,656.273c-41.726,25.476-95.248-4.554-95.248-53.447V289.37C572.808,240.477,626.33,210.447,668.056,235.914Z" transform="translate(-548.462 -198.675)" fill="#fff"/><g transform="translate(74.712 201.167)"><g transform="translate(57.849 0)"><path d="M498.647,300.642V283.914H485.612v-13.9l13.9-.652,2.39-16.294h15.425v16.294h21.507v14.556H517.331v16.4c0,7.713,3.584,10.1,10.536,10.1a30.848,30.848,0,0,0,9.886-1.738l3.259,13.47a65.371,65.371,0,0,1-18.033,2.824C505.165,324.974,498.647,315.2,498.647,300.642Z" transform="translate(-485.612 -248.067)" fill="#0f4798"/><path d="M549.114,304.36V270.9H567.8V301.97c0,6.083,1.3,8.69,6.193,8.69,3.15,0,5.322-.869,8.147-4.78V270.9h18.683v54.313H585.613l-1.3-7.169h-.434c-4.562,5.215-9.994,8.473-17.6,8.473C554.111,326.519,549.114,317.829,549.114,304.36Z" transform="translate(-491.112 -249.612)" fill="#0f4798"/><path d="M628.414,317.331h-.434L626.46,323.2H611.9v-75.6h18.683v17.6l-.65,7.82h.434a20.106,20.106,0,0,1,13.578-5.431c13.144,0,21.617,10.863,21.617,27.482,0,18.793-11.3,29.437-23.137,29.437C637.539,324.5,632.65,322.111,628.414,317.331Zm18.032-21.942c0-8.907-2.715-12.6-8.038-12.6-2.933,0-5.215,1.086-7.823,3.91v19.987a11.019,11.019,0,0,0,7.387,2.608C642.535,309.293,646.446,305.817,646.446,295.389Z" transform="translate(-496.551 -247.593)" fill="#0f4798"/><path d="M672.076,297.936c0-17.815,13.9-28.46,28.46-28.46,17.163,0,25.853,11.731,25.853,26.287a49.133,49.133,0,0,1-.76,7.821H686.2V291.419h26.5l-2.607,3.258c0-7.169-2.825-11.079-8.908-11.079-7.169,0-11.079,4.562-11.079,14.338,0,10.21,5,14.339,14.99,14.339,4.345,0,8.256-1.086,13.035-3.259l6.083,11.08a43.092,43.092,0,0,1-21.725,6.3C685.329,326.4,672.076,315.968,672.076,297.936Z" transform="translate(-501.763 -249.488)" fill="#0f4798"/></g><g transform="translate(0 4.879)"><path d="M440.565,269.269l6.986,23.426c1.611,5.375,2.9,10.96,4.406,16.764h.429c1.5-5.8,2.794-11.389,4.406-16.764l6.93-23.25-22.265-14.8c-7.871-5.233-19.253,2.3-19.181,12.686l.014,1.942Z" transform="translate(-422.277 -252.934)" fill="#0f4798"/><path d="M494.208,289.433l-11.741-7.805-13.685,39.329,21.1-8.685C499.6,308.275,502.163,294.722,494.208,289.433Z" transform="translate(-426.305 -255.42)" fill="#0f4798"/><path d="M441.615,325.725l-19.338-53.717.345,49.719a10.914,10.914,0,0,0,15.066,10.017l14.627-6.019Z" transform="translate(-422.277 -254.586)" fill="#0f4798"/></g></g></g></svg>